<svg width="32" height="32" viewBox="0 0 32 32" fill="none" xmlns="http://www.w3.org/2000/svg">
<path d="M31.5 16C31.5 24.5604 24.5604 31.5 16 31.5C7.43959 31.5 0.5 24.5604 0.5 16C0.5 7.43959 7.43959 0.5 16 0.5C24.5604 0.5 31.5 7.43959 31.5 16Z" fill="white" stroke="#B9BBC2"/>
<path fill-rule="evenodd" clip-rule="evenodd" d="M14.5983 8.61523C15.477 8.61523 16.3525 8.61523 17.2312 8.61523C17.1795 9.20966 17.1246 9.80732 17.0761 10.4018C18.1002 10.4761 19.0985 10.8056 19.9966 11.2934C19.6089 12.269 19.218 13.2447 18.8271 14.2203C18.0711 13.5774 17.0761 13.2221 16.0843 13.235C15.8356 13.2415 15.5771 13.2899 15.3704 13.4321C15.2347 13.5257 15.1345 13.6711 15.1055 13.8326C15.0828 13.9619 15.0893 14.1073 15.1604 14.2236C15.2411 14.3528 15.3833 14.4303 15.5254 14.4788C15.8162 14.5821 16.1296 14.5886 16.4332 14.6209C17.1472 14.7081 17.8644 14.8309 18.5396 15.0861C19.0629 15.2864 19.5637 15.5869 19.9223 16.0262C20.2615 16.4301 20.4586 16.9405 20.5329 17.4638C20.6201 18.068 20.5942 18.6947 20.4069 19.2827C20.2615 19.7543 20.0127 20.1937 19.6897 20.5652C19.0209 21.3406 18.0388 21.8058 17.0309 21.9253C17.0632 22.5617 17.102 23.1949 17.1375 23.8314C16.304 23.8314 15.4737 23.8314 14.6435 23.8314C14.6758 23.2014 14.7178 22.5714 14.7469 21.9414C14.0781 21.9188 13.4159 21.7702 12.7924 21.5344C12.1882 21.305 11.6132 21.0013 11.0769 20.646C11.471 19.6316 11.8652 18.6172 12.2625 17.5995C12.7116 17.9775 13.1897 18.3296 13.7131 18.5978C14.2752 18.8853 14.8987 19.0694 15.5319 19.0759C15.8323 19.0791 16.1425 19.063 16.4268 18.9596C16.6012 18.895 16.7724 18.7819 16.85 18.6042C16.9307 18.4169 16.9243 18.181 16.8015 18.013C16.7143 17.9 16.5915 17.8224 16.4623 17.7675C16.2879 17.6964 16.1069 17.6577 15.9228 17.6286C15.2444 17.5188 14.5627 17.4283 13.9069 17.2151C13.3803 17.0439 12.8667 16.8048 12.4467 16.4365C12.1818 16.2071 11.9621 15.9261 11.807 15.6095C11.5744 15.1378 11.4872 14.6048 11.4937 14.0814C11.4937 13.4967 11.6132 12.9022 11.9039 12.3886C12.1559 11.9298 12.5404 11.5551 12.9733 11.2676C13.4966 10.9219 14.0814 10.686 14.6758 10.4954C14.6499 9.86871 14.6241 9.24197 14.5983 8.61523Z" fill="#232325"/>
</svg>
